<?xml version="1.0" standalone="no"?>
<!DOCTYPE svg PUBLIC "-//W3C//DTD SVG 20010904//EN"
 "http://www.w3.org/TR/2001/REC-SVG-20010904/DTD/svg10.dtd">
<svg version="1.0" xmlns="http://www.w3.org/2000/svg"
 width="400.000000pt" height="400.000000pt" viewBox="0 0 400.000000 400.000000"
 preserveAspectRatio="xMidYMid meet">
<metadata>
Created by potrace 1.11, written by Peter Selinger 2001-2013
</metadata>
<g transform="translate(0.000000,400.000000) scale(0.100000,-0.100000)"
fill="#000000" stroke="none">
<path d="M68 3993 c7 -3 16 -2 19 1 4 3 -2 6 -13 5 -11 0 -14 -3 -6 -6z"/>
<path d="M605 3989 c-27 -5 -80 -12 -117 -15 -38 -4 -68 -11 -68 -16 0 -5 -7
-8 -16 -6 -10 2 -19 -3 -21 -9 -3 -7 1 -13 8 -13 7 0 21 -7 31 -17 17 -15 18
-15 18 5 0 15 6 22 20 22 12 0 20 -7 20 -17 0 -13 3 -14 12 -5 14 14 48 16 48
2 0 -5 -8 -13 -17 -19 -23 -12 -13 -22 15 -14 13 3 22 13 22 24 0 15 7 19 39
19 22 0 52 5 68 11 15 6 46 11 67 11 47 -1 110 23 101 38 -7 12 -157 11 -230
-1z"/>
<path d="M3130 3991 c0 -11 29 -35 35 -29 10 9 -7 38 -21 38 -8 0 -14 -4 -14
-9z"/>
<path d="M3480 3991 c0 -21 36 -52 53 -46 21 9 22 41 1 49 -23 9 -54 7 -54 -3z"/>
<path d="M3529 3922 c-41 -42 -120 -126 -174 -187 -55 -60 -105 -114 -111
-120 -6 -5 -33 -37 -60 -70 -27 -33 -58 -69 -69 -80 -11 -11 -66 -76 -123
-145 -201 -244 -284 -324 -430 -412 -86 -53 -339 -140 -522 -181 -507 -113
-1011 -184 -1225 -172 -170 9 -266 31 -336 77 -33 21 -66 38 -74 38 -8 0 -15
7 -15 15 0 8 -6 15 -14 15 -8 0 -16 7 -20 15 -3 8 -12 15 -21 15 -8 0 -15 4
-15 8 0 5 -11 15 -25 22 -14 7 -25 19 -25 25 0 6 -14 21 -30 33 -60 45 -28 0
70 -97 55 -55 100 -104 100 -110 0 -6 11 -11 24 -11 13 0 30 -7 37 -16 18 -22
86 -51 159 -67 56 -13 242 -10 460 8 l75 6 12 -38 c25 -83 27 -115 8 -129 -22
-16 -20 -19 24 -28 31 -6 33 -5 27 19 -15 59 -19 115 -7 115 6 0 11 -4 11 -9
0 -5 13 -11 30 -13 17 -3 30 -1 30 4 0 4 7 8 15 8 10 0 15 -10 15 -27 0 -16 9
-41 20 -58 11 -16 20 -38 20 -47 0 -21 53 -48 80 -41 23 6 150 -16 150 -26 0
-4 13 -14 29 -24 33 -19 99 -22 151 -6 62 18 70 18 90 -3 11 -12 29 -20 44
-18 14 1 40 2 56 3 19 1 30 8 31 17 0 8 7 1 15 -17 7 -17 18 -34 24 -38 6 -3
8 -10 5 -15 -3 -5 -1 -11 5 -15 5 -3 10 -21 10 -38 0 -18 5 -39 10 -47 8 -13
10 -12 10 3 0 9 5 17 10 17 6 0 10 -20 10 -44 0 -25 5 -48 10 -51 6 -3 10 -19
10 -34 0 -16 7 -34 15 -41 9 -7 23 -28 31 -46 10 -21 24 -34 35 -34 10 0 23
-8 28 -17 10 -17 10 -17 11 0 0 21 42 23 60 2 16 -19 4 -35 -26 -35 -20 0 -33
-13 -65 -64 -27 -44 -50 -68 -70 -75 -16 -5 -29 -12 -29 -15 0 -11 80 -46 105
-46 31 0 75 -27 75 -45 0 -17 -31 -28 -54 -19 -24 9 -89 -24 -82 -43 3 -8 6
-20 6 -26 0 -11 26 -13 97 -8 17 1 22 8 25 32 2 19 11 37 23 43 10 6 26 17 35
25 13 13 15 12 18 -11 4 -34 26 -42 62 -23 16 8 37 12 46 8 11 -4 15 -2 11 4
-4 6 3 8 18 5 14 -2 25 -9 25 -14 0 -5 6 -8 13 -6 6 3 12 10 12 16 0 13 1 14
33 6 12 -4 22 -11 22 -18 0 -6 14 -19 31 -28 17 -10 27 -22 24 -28 -4 -6 -12
-7 -18 -3 -7 4 -5 -2 3 -12 11 -14 12 -17 1 -10 -9 5 -19 1 -30 -13 -13 -17
-35 -23 -106 -32 -49 -6 -99 -15 -110 -20 -11 -5 -39 -14 -62 -20 -24 -6 -54
-23 -68 -38 -22 -23 -28 -25 -45 -15 -15 10 -31 10 -81 -3 -34 -9 -75 -13 -90
-10 -34 7 -186 -19 -205 -35 -8 -6 -14 -18 -14 -25 0 -11 14 -12 63 -8 34 3
76 10 92 16 17 6 98 14 180 19 83 4 182 11 221 15 l72 7 7 -31 c7 -36 34 -48
66 -32 16 9 23 9 29 0 5 -9 9 -9 14 -1 8 12 26 6 26 -10 0 -34 -130 -100 -156
-78 -7 6 -15 6 -18 1 -3 -5 -27 -12 -54 -15 -46 -5 -170 -43 -184 -56 -4 -3
-2 -17 5 -30 24 -48 150 -58 211 -17 14 9 37 16 51 16 16 0 25 6 25 15 0 8 9
15 20 15 23 0 60 22 99 58 13 12 36 22 50 22 29 0 54 30 45 54 -3 9 2 17 14
20 11 4 23 18 26 32 4 14 19 37 34 51 15 14 27 30 27 36 0 15 36 22 44 9 7
-12 43 15 60 45 6 12 11 37 11 55 0 46 -70 116 -115 116 -37 0 -62 -17 -43
-29 15 -9 11 -14 -19 -23 -16 -5 -23 -2 -28 14 -4 13 -12 19 -21 16 -8 -3 -21
-3 -29 0 -11 5 -12 10 -4 26 8 16 8 23 -2 29 -19 12 -33 11 -46 -2 -8 -8 -15
-2 -26 22 -18 41 -27 90 -16 83 5 -3 9 5 9 18 0 37 23 77 45 80 35 5 29 43
-19 115 -25 37 -54 73 -64 80 -30 18 -54 71 -42 93 10 19 47 36 57 26 3 -3 12
2 20 10 11 11 19 12 28 4 9 -8 15 -8 20 0 3 6 11 8 16 4 18 -11 104 26 142 62
30 29 48 37 85 40 81 7 113 16 125 35 7 11 17 19 24 19 6 0 18 9 26 20 14 20
47 19 47 -1 0 -5 11 -9 25 -9 16 0 25 -6 25 -15 0 -8 7 -15 16 -15 10 0 14 6
10 15 -4 13 20 35 38 35 13 0 5 -28 -9 -34 -8 -3 -15 -17 -15 -33 1 -27 1 -27
15 -9 15 20 15 20 15 0 1 -18 1 -18 11 -1 5 9 22 17 37 18 15 0 21 3 15 6 -7
2 -13 12 -13 21 0 13 3 12 15 -4 26 -34 19 -68 -17 -82 -25 -9 -34 -9 -40 1
-5 8 -8 7 -8 -5 0 -12 8 -18 24 -18 37 0 56 -10 56 -31 0 -10 -4 -19 -10 -19
-5 0 -10 -5 -10 -11 0 -5 5 -7 10 -4 6 3 10 -1 10 -10 0 -9 -5 -13 -11 -9 -7
4 -10 1 -7 -7 3 -9 18 -13 42 -12 36 2 49 -10 21 -21 -8 -3 -15 -17 -15 -32 0
-22 2 -25 15 -14 9 8 15 9 15 2 0 -6 -4 -13 -9 -16 -10 -7 -2 -93 11 -118 7
-15 4 -18 -15 -18 -30 0 -51 -23 -43 -48 4 -11 0 -24 -9 -32 -9 -8 -13 -21 -9
-32 3 -10 0 -25 -6 -33 -7 -8 -13 -40 -14 -71 -1 -42 -6 -58 -20 -66 -12 -7
-21 -7 -29 1 -19 19 -24 12 -23 -34 1 -29 5 -45 14 -45 6 0 12 -7 12 -15 0 -8
-6 -12 -14 -9 -12 5 -13 0 -7 -23 5 -15 13 -27 20 -25 17 3 13 -16 -6 -27 -10
-6 -14 -11 -10 -11 5 0 1 -10 -7 -22 -9 -12 -16 -32 -16 -44 0 -14 -8 -24 -21
-27 -16 -4 -19 -9 -11 -22 10 -19 4 -65 -8 -65 -5 0 -10 6 -13 13 -3 9 -7 9
-20 -2 -9 -7 -14 -17 -11 -23 3 -5 0 -15 -6 -23 -10 -12 -9 -15 9 -15 19 0 20
-2 9 -20 -8 -12 -19 -18 -28 -14 -8 4 -22 7 -30 7 -8 0 -22 10 -32 21 -10 12
-17 15 -18 9 0 -7 -7 -13 -15 -13 -18 0 -20 -36 -5 -76 9 -23 7 -32 -9 -53
-11 -15 -28 -41 -37 -58 -9 -18 -20 -33 -25 -33 -5 0 -9 -7 -9 -15 0 -9 -9
-15 -24 -15 -29 0 -44 -18 -22 -26 26 -10 18 -27 -9 -22 -19 4 -25 1 -23 -11
2 -12 -4 -15 -29 -13 -27 3 -31 1 -26 -16 4 -16 -4 -24 -32 -38 -21 -10 -40
-26 -43 -36 -2 -10 -10 -18 -16 -18 -7 0 -23 -12 -37 -26 -19 -21 -30 -25 -58
-20 -32 5 -33 4 -27 -24 3 -19 1 -32 -8 -37 -7 -4 -16 -17 -21 -28 -7 -18 -9
-18 -12 -2 -3 9 -8 15 -13 12 -5 -3 -7 -12 -3 -20 6 -18 -8 -20 -24 -4 -13 13
-33 4 -33 -17 0 -8 -9 -14 -20 -14 -13 0 -18 5 -14 15 4 8 2 15 -3 15 -18 0
-53 -41 -53 -61 0 -11 -4 -18 -9 -15 -5 3 -7 15 -4 26 6 22 -12 28 -20 8 -4
-9 -13 -5 -29 12 -13 14 -30 24 -39 22 -10 -2 -19 6 -22 19 -6 22 -7 22 -25 6
-18 -17 -21 -16 -71 25 -30 25 -54 54 -57 69 -3 15 -16 32 -28 39 -20 11 -73
83 -76 105 -3 19 -32 44 -45 39 -7 -3 -22 11 -34 32 -18 30 -24 35 -32 23 -6
-10 -9 -10 -9 -1 0 6 -5 12 -11 12 -16 0 -144 132 -200 205 -99 132 -201 342
-230 475 -32 154 -41 174 -65 150 -15 -15 -120 -40 -169 -40 -24 0 -46 -4 -49
-9 -8 -12 -115 -48 -166 -55 -49 -7 -89 -20 -165 -55 -40 -18 -63 -39 -115
-107 -83 -109 -105 -129 -138 -127 -15 1 -19 -1 -10 -3 22 -7 23 -28 2 -48
-16 -17 -76 -127 -134 -246 -17 -36 -40 -100 -50 -144 -20 -81 -41 -116 -70
-116 -9 0 -30 -11 -45 -24 -21 -18 -32 -22 -44 -15 -11 7 -33 4 -70 -9 -29
-11 -49 -22 -44 -25 5 -3 59 -4 121 -2 l112 4 0 -53 c0 -33 -13 -93 -35 -160
-19 -60 -35 -115 -35 -122 0 -8 -9 -33 -19 -57 -39 -87 -47 -140 -42 -279 l1
-38 1920 0 1920 0 0 770 c0 731 -1 770 -18 770 -10 0 -26 6 -37 14 -11 7 -36
17 -55 21 -54 12 -129 94 -87 96 6 0 1 5 -12 10 -17 7 -22 15 -18 30 5 17 2
20 -14 16 -24 -6 -65 41 -49 57 17 17 12 33 -12 40 -22 7 -22 8 9 23 43 22 48
40 15 57 l-27 15 25 1 c14 0 36 3 50 7 22 6 23 4 12 -9 -11 -14 -9 -19 14 -37
42 -33 64 -28 64 14 0 24 -6 37 -20 45 -11 6 -20 7 -21 3 0 -4 -4 2 -9 15 -12
28 -50 30 -57 2 -5 -20 -37 -28 -47 -11 -11 17 6 41 29 41 34 0 41 48 9 60
-29 12 -31 26 -3 35 16 5 39 40 39 61 0 9 -28 4 -32 -6 -2 -6 -16 -8 -35 -4
-18 4 -30 10 -27 15 3 5 -2 6 -10 3 -11 -4 -16 0 -16 11 0 11 5 15 14 12 27
-10 47 15 38 48 -5 17 -13 30 -18 30 -20 0 -31 16 -31 42 0 16 -10 34 -24 46
-23 18 -23 19 -4 33 26 19 36 18 42 -6 7 -25 19 -26 25 -2 4 15 15 18 66 16
55 -1 61 1 64 20 2 12 9 20 16 19 7 -2 12 8 12 23 0 19 -4 25 -15 21 -8 -4
-17 -2 -21 4 -3 6 -12 8 -18 6 -7 -3 -13 1 -13 9 0 20 46 30 62 13 7 -8 17
-33 23 -56 8 -35 7 -43 -4 -43 -8 0 -14 -7 -14 -15 0 -8 -9 -15 -21 -15 -30 0
-65 -20 -50 -30 15 -9 24 -127 11 -135 -16 -10 -11 -25 5 -19 8 4 15 15 15 25
0 12 7 19 20 19 11 0 20 -7 20 -15 0 -8 5 -15 11 -15 6 0 9 7 5 15 -4 11 1 15
19 15 21 0 25 5 25 29 0 25 5 31 31 36 17 4 33 4 36 1 9 -8 -18 -37 -28 -30
-11 6 -11 0 1 -52 7 -32 6 -49 -5 -72 -14 -27 -19 -30 -53 -26 -31 4 -40 1
-56 -22 -14 -20 -16 -28 -6 -34 9 -5 11 -20 7 -44 -7 -44 2 -46 32 -6 14 20
29 29 39 26 9 -2 29 -7 44 -10 14 -3 28 -14 31 -24 2 -9 5 62 5 159 1 174 1
177 -23 205 -14 16 -25 34 -25 41 0 6 -4 13 -10 15 -5 2 -11 16 -12 32 -2 16
-10 34 -20 40 -16 9 -16 12 -2 28 28 30 12 43 -51 43 l-59 0 -2 52 c-2 66 9
86 31 56 14 -20 68 -53 86 -53 17 0 -8 49 -39 75 l-34 28 39 14 c28 10 43 10
59 2 29 -15 58 -8 62 15 3 14 0 17 -13 12 -9 -3 -22 -3 -28 1 -7 5 -21 8 -32
9 -75 3 -73 1 -84 52 -9 45 -8 48 17 69 15 12 37 22 49 23 12 0 25 5 28 10 12
19 23 10 32 -27 10 -44 33 -57 33 -19 0 15 -6 26 -14 26 -23 0 -26 37 -4 56
18 17 19 33 17 330 -1 301 -2 312 -20 301 -10 -6 -17 -20 -16 -32 3 -32 -34
-30 -71 5 l-34 30 -29 -20 c-16 -12 -36 -31 -44 -43 -8 -12 -16 -21 -18 -19
-1 2 -10 0 -20 -4 -10 -3 -21 -4 -24 0 -6 6 9 21 102 105 11 10 38 28 60 39
83 44 138 112 103 125 -10 3 -10 9 0 26 7 12 12 56 12 106 l0 85 -197 0 -198
0 -76 -78z m31 -142 c-18 -11 -22 -7 -14 14 5 13 10 14 18 6 8 -8 7 -13 -4
-20z m264 -5 c-6 -16 -24 -21 -24 -7 0 11 11 22 21 22 5 0 6 -7 3 -15z m129 0
c-3 -9 -18 -22 -33 -30 -15 -8 -31 -26 -34 -40 -6 -25 -39 -35 -51 -15 -3 6
-3 10 2 10 4 0 33 20 63 45 30 25 56 45 57 45 1 0 0 -7 -4 -15z m-461 -57 c-7
-7 -12 -8 -12 -2 0 6 3 14 7 17 3 4 9 5 12 2 2 -3 -1 -11 -7 -17z m218 -43 c0
-2 -10 -10 -22 -16 -21 -11 -22 -11 -9 4 13 16 31 23 31 12z m138 -12 c2 -8
-5 -13 -17 -13 -12 0 -30 -9 -41 -20 -11 -11 -20 -17 -20 -14 0 3 -20 -11 -45
-32 -63 -51 -68 -36 -6 22 74 69 118 89 129 57z m-404 -37 c-6 -16 -34 -30
-34 -18 0 5 5 13 12 20 16 16 29 15 22 -2z m191 -26 c-3 -5 -16 -15 -28 -21
-22 -12 -22 -12 -3 10 19 21 43 30 31 11z m25 -105 c-11 -19 -16 -35 -10 -35
5 0 12 5 15 10 3 6 13 10 21 10 12 0 12 -4 4 -20 -6 -11 -15 -20 -21 -20 -9 0
-32 -20 -116 -102 -34 -34 -36 -16 -3 21 17 18 30 36 30 41 0 5 9 11 19 15 13
4 22 19 26 45 4 22 11 40 15 40 5 0 12 9 15 20 4 11 10 18 15 15 5 -3 0 -21
-10 -40z m301 6 c-11 -20 -48 -34 -56 -21 -3 5 7 16 22 24 37 20 46 20 34 -3z
m-168 -42 c-20 -34 -43 -38 -43 -8 0 25 28 49 47 42 10 -4 9 -12 -4 -34z
m-187 5 c-3 -9 -6 -18 -6 -20 0 -2 -7 -4 -15 -4 -13 0 -13 3 -3 20 15 24 33
27 24 4z m104 -44 c0 -5 -4 -10 -10 -10 -5 0 -10 5 -10 10 0 6 5 10 10 10 6 0
10 -4 10 -10z m-160 -14 c0 -3 -4 -8 -10 -11 -5 -3 -10 -1 -10 4 0 6 5 11 10
11 6 0 10 -2 10 -4z m279 -678 c-11 -21 -39 -24 -39 -5 0 19 9 26 30 24 15 -1
16 -5 9 -19z m-99 -258 c0 -5 -4 -10 -10 -10 -5 0 -10 5 -10 10 0 6 5 10 10
10 6 0 10 -4 10 -10z m45 -68 c-3 -3 -11 0 -18 7 -9 10 -8 11 6 5 10 -3 15 -9
12 -12z m-2227 -21 c25 -34 20 -41 -24 -41 -38 0 -48 12 -40 46 9 33 37 31 64
-5z m2352 -24 c0 -18 -2 -19 -10 -7 -13 20 -13 43 0 35 6 -3 10 -16 10 -28z
m-675 -87 c3 -5 1 -10 -4 -10 -6 0 -11 5 -11 10 0 6 2 10 4 10 3 0 8 -4 11
-10z m655 -190 c0 -5 -5 -10 -11 -10 -5 0 -7 5 -4 10 3 6 8 10 11 10 2 0 4 -4
4 -10z m-1360 -528 c0 -13 -12 -22 -22 -16 -10 6 -1 24 13 24 5 0 9 -4 9 -8z
m712 -154 c-6 -6 -7 0 -4 19 5 21 7 23 10 9 2 -10 0 -22 -6 -28z m388 -82 c0
-3 -4 -8 -10 -11 -5 -3 -10 -1 -10 4 0 6 5 11 10 11 6 0 10 -2 10 -4z m-1100
-96 c0 -5 -4 -10 -10 -10 -5 0 -10 5 -10 10 0 6 5 10 10 10 6 0 10 -4 10 -10z
m180 -5 c0 -8 -4 -15 -10 -15 -5 0 -10 7 -10 15 0 8 5 15 10 15 6 0 10 -7 10
-15z m-450 -787 c67 -35 126 -56 170 -60 18 -2 26 -10 28 -26 3 -18 8 -23 23
-19 11 3 26 -1 33 -9 8 -8 26 -14 40 -14 14 0 26 -4 26 -10 0 -5 12 -16 26
-23 19 -10 23 -16 15 -22 -7 -4 -18 -2 -24 4 -19 19 -35 13 -30 -11 4 -19 3
-20 -6 -8 -10 13 -12 13 -20 0 -8 -12 -17 -12 -63 -1 -122 29 -217 95 -305
211 -42 54 -45 85 -5 48 15 -14 56 -41 92 -60z m454 -174 c25 -9 19 -24 -9
-24 -16 0 -25 6 -25 15 0 16 9 19 34 9z"/>
<path d="M51 3954 c0 -11 3 -14 6 -6 3 7 2 16 -1 19 -3 4 -6 -2 -5 -13z"/>
<path d="M2 3930 c0 -14 2 -19 5 -12 2 6 2 18 0 25 -3 6 -5 1 -5 -13z"/>
<path d="M830 3935 c0 -8 2 -15 4 -15 2 0 6 7 10 15 3 8 1 15 -4 15 -6 0 -10
-7 -10 -15z"/>
<path d="M3246 3923 c8 -32 24 -55 24 -32 0 26 -12 59 -21 59 -5 0 -6 -12 -3
-27z"/>
<path d="M974 3916 c-17 -13 -15 -14 19 -6 47 10 59 20 26 20 -14 0 -34 -6
-45 -14z"/>
<path d="M181 3907 c-13 -13 -15 -28 -3 -25 4 0 18 -4 32 -10 l25 -11 -23 0
c-13 -1 -32 4 -43 9 -10 6 -20 7 -20 3 -8 -56 -7 -63 11 -63 10 0 20 -6 23
-12 2 -8 10 -1 17 15 12 25 31 33 68 28 6 -1 12 3 12 9 0 5 -5 10 -11 10 -8 0
-7 6 2 16 12 15 11 16 -9 10 -12 -4 -22 -4 -22 1 0 15 -48 31 -59 20z"/>
<path d="M353 3913 c-13 -2 -23 -9 -23 -14 0 -5 10 -9 23 -10 12 0 16 -3 9 -6
-6 -2 -10 -9 -6 -14 9 -15 20 -10 32 15 10 22 7 38 -7 35 -3 -1 -16 -4 -28 -6z"/>
<path d="M601 3896 c-8 -10 -9 -16 -1 -21 13 -8 30 3 30 21 0 18 -14 18 -29 0z"/>
<path d="M90 3879 c0 -12 -7 -19 -19 -19 -10 0 -22 -7 -25 -16 -4 -10 -14 -14
-26 -11 -14 4 -20 0 -20 -13 0 -20 31 -32 50 -20 7 4 9 13 6 19 -4 7 1 11 13
11 18 0 71 39 71 52 0 3 -11 8 -25 10 -19 4 -25 1 -25 -13z"/>
<path d="M855 3880 c-3 -5 1 -10 9 -10 19 0 21 -11 5 -27 -13 -13 -3 -36 12
-28 15 10 11 75 -5 75 -8 0 -18 -4 -21 -10z"/>
<path d="M607 3844 c-10 -11 3 -24 24 -24 23 0 25 15 3 24 -19 7 -19 7 -27 0z"/>
<path d="M312 3820 c-22 -18 -22 -20 -5 -39 12 -15 20 -18 30 -10 7 6 20 9 28
5 10 -3 15 1 15 13 0 11 6 22 13 24 6 3 4 6 -7 6 -10 1 -25 -7 -33 -16 -12
-16 -13 -15 -7 10 7 32 -2 34 -34 7z"/>
<path d="M714 3815 c-4 -8 -12 -15 -20 -15 -15 0 -19 -12 -7 -23 3 -4 12 -2
20 4 9 9 13 8 13 0 0 -26 15 -8 16 19 1 31 -13 41 -22 15z"/>
<path d="M770 3805 c-15 -18 -6 -45 14 -45 22 0 60 35 52 48 -10 17 -51 15
-66 -3z"/>
<path d="M458 3793 c-17 -4 -34 -33 -19 -33 4 0 16 9 26 20 10 11 16 19 14 19
-2 -1 -11 -3 -21 -6z"/>
<path d="M0 3735 c0 -28 4 -45 12 -45 9 0 9 -3 0 -12 -15 -15 -16 -88 -2 -88
17 0 23 29 9 46 -10 13 -9 16 9 21 22 5 31 33 11 33 -9 0 -9 4 0 13 8 11 6 18
-8 31 -11 10 -17 24 -14 32 3 8 0 14 -6 14 -6 0 -11 -19 -11 -45z"/>
<path d="M250 3772 c0 -9 39 -48 41 -41 8 39 4 49 -18 49 -13 0 -23 -4 -23 -8z"/>
<path d="M655 3769 c-4 -6 -14 -8 -22 -5 -19 8 -63 -3 -63 -15 0 -17 58 -9 81
11 13 10 21 19 17 20 -4 0 -10 -5 -13 -11z"/>
<path d="M70 3735 c-7 -9 -8 -15 -2 -15 5 0 12 7 16 15 3 8 4 15 2 15 -2 0 -9
-7 -16 -15z"/>
<path d="M346 3735 c-11 -29 -7 -35 17 -26 12 5 22 14 22 22 0 20 -31 23 -39
4z"/>
<path d="M60 3701 c0 -5 10 -12 23 -14 l22 -4 -22 -8 c-28 -9 -30 -35 -3 -35
11 0 20 -4 20 -10 0 -18 19 -11 31 11 9 18 8 25 -7 39 -23 22 -64 35 -64 21z"/>
<path d="M200 3700 c0 -5 16 -10 35 -10 19 0 35 5 35 10 0 6 -16 10 -35 10
-19 0 -35 -4 -35 -10z"/>
<path d="M3991 3703 c0 -6 -17 -17 -36 -23 -45 -15 -45 -30 0 -30 37 0 50 15
42 47 -3 10 -5 13 -6 6z"/>
<path d="M550 3680 c-12 -8 -10 -10 8 -10 13 0 20 4 17 10 -7 12 -6 12 -25 0z"/>
<path d="M850 3630 c-25 -4 -62 -15 -84 -24 -21 -9 -55 -16 -75 -16 -20 0 -61
-6 -91 -14 -30 -8 -74 -17 -98 -21 -24 -4 -41 -10 -38 -13 9 -8 79 -5 182 8
50 6 95 10 100 9 5 -1 31 -1 57 0 39 1 54 7 78 30 27 28 38 52 22 50 -5 -1
-28 -5 -53 -9z"/>
<path d="M1058 3609 c-35 -26 -35 -35 -1 -43 29 -8 43 5 43 42 0 27 -7 27 -42
1z"/>
<path d="M900 3580 c-13 -25 -2 -25 30 0 25 19 25 20 3 20 -12 0 -27 -9 -33
-20z"/>
<path d="M47 3573 c-4 -3 -7 -11 -7 -17 0 -6 5 -5 12 2 6 6 9 14 7 17 -3 3 -9
2 -12 -2z"/>
<path d="M0 3560 c0 -13 18 -22 24 -11 3 5 -1 11 -9 15 -8 3 -15 1 -15 -4z"/>
<path d="M345 3539 c-4 -6 -5 -12 -3 -14 7 -8 78 7 78 16 0 13 -68 11 -75 -2z"/>
<path d="M156 3531 c-4 -7 -5 -15 -2 -18 9 -9 19 4 14 18 -4 11 -6 11 -12 0z"/>
<path d="M2945 3499 c-16 -4 -95 -12 -175 -18 -80 -6 -183 -17 -230 -26 -47
-8 -92 -16 -100 -16 -35 -1 -70 -11 -70 -20 0 -5 24 -9 53 -10 41 0 47 -2 30
-9 -33 -13 -28 -21 9 -13 22 4 29 3 24 -5 -5 -8 4 -12 28 -12 20 0 36 -4 36
-9 0 -13 -51 -24 -63 -12 -6 6 -19 6 -32 1 -14 -5 -27 -4 -33 2 -8 8 -24 5
-59 -14 -27 -14 -90 -33 -143 -43 -52 -9 -108 -21 -125 -26 -16 -5 -65 -11
-109 -13 -43 -3 -84 -11 -92 -17 -8 -7 -31 -9 -54 -6 -25 3 -45 0 -57 -9 -10
-7 -28 -14 -41 -14 -31 0 -102 -23 -102 -33 0 -5 32 -5 71 -1 49 5 77 3 94 -6
13 -7 31 -10 40 -6 21 8 9 27 -13 20 -14 -5 -14 -4 1 6 11 7 32 9 50 6 46 -9
100 -7 112 5 7 8 -6 9 -42 4 -30 -4 -53 -3 -53 2 0 5 16 10 36 11 20 2 45 7
55 12 9 6 46 14 81 20 35 6 85 14 111 19 26 4 44 5 40 1 -10 -9 -135 -40 -161
-40 -10 0 -27 -7 -38 -15 -17 -13 -13 -14 42 -11 34 2 70 8 80 14 11 5 49 12
85 16 36 3 104 13 151 21 90 15 303 40 478 55 l105 8 32 39 32 38 -22 17 -22
18 30 0 c18 0 43 11 64 29 35 30 35 30 10 35 -49 10 -115 12 -144 5z m-33 -60
c15 -8 27 -8 44 2 13 7 27 9 31 5 4 -4 -3 -9 -15 -13 -12 -3 -22 -11 -22 -19
0 -24 -32 -32 -180 -45 -187 -16 -263 -3 -214 37 11 9 13 13 7 9 -7 -3 -13 -1
-13 4 0 6 8 11 18 11 91 1 276 11 280 15 9 9 42 5 64 -6z m-375 -33 c-4 -9
-14 -16 -24 -16 -15 0 -16 2 -3 10 12 8 12 10 -5 10 -20 1 -20 1 -1 15 23 17
42 5 33 -19z m448 -6 c3 -5 -1 -10 -10 -10 -9 0 -13 5 -10 10 3 6 8 10 10 10
2 0 7 -4 10 -10z"/>
<path d="M0 3445 c0 -24 5 -35 15 -35 18 0 69 -54 55 -58 -5 -2 -10 -9 -10
-14 0 -6 3 -8 6 -5 4 4 20 -3 35 -14 16 -11 29 -17 29 -12 0 4 6 1 13 -7 7 -8
21 -20 32 -26 11 -6 21 -21 23 -32 3 -20 5 -21 28 -6 22 15 24 15 30 -2 10
-27 42 -56 49 -44 9 15 25 12 25 -5 0 -8 9 -15 20 -15 15 0 20 -7 20 -26 0
-19 4 -25 15 -20 8 3 18 0 22 -7 12 -18 72 -49 82 -42 5 3 16 -3 23 -12 7 -10
20 -19 28 -21 8 -2 29 -14 47 -28 17 -13 37 -24 43 -24 6 0 8 -6 4 -12 -4 -7
-4 -10 1 -6 4 4 46 -13 92 -38 95 -51 127 -55 59 -7 -26 18 -46 37 -46 42 0
14 50 19 80 8 24 -9 32 -8 48 6 10 9 26 17 35 17 9 0 19 5 22 10 10 16 22 12
28 -10 3 -11 13 -20 22 -20 11 0 15 5 11 15 -9 26 20 17 34 -10 9 -17 19 -24
29 -19 126 52 330 114 377 114 3 0 4 6 1 14 -8 20 13 36 48 37 16 0 24 3 16 6
-20 8 -210 -17 -217 -28 -9 -15 -26 -10 -20 6 9 24 -8 17 -19 -7 -14 -31 -181
-90 -194 -69 -12 19 -103 5 -165 -26 -47 -24 -50 -24 -63 -7 -11 15 -17 16
-38 6 -47 -22 -97 -14 -152 22 -56 36 -60 40 -113 85 l-35 29 55 -2 c30 -2 61
1 68 7 8 6 16 6 25 -1 17 -15 110 -13 119 2 6 8 8 7 8 -1 0 -25 26 -13 37 17
7 18 17 28 25 25 7 -3 20 0 28 5 13 9 11 13 -9 29 -20 15 -29 16 -53 7 -23 -8
-31 -8 -38 4 -11 18 15 70 37 70 12 0 14 7 10 35 -5 29 -3 35 12 35 29 0 70
24 75 44 5 18 0 18 -97 12 -56 -4 -142 -8 -191 -10 -58 -2 -91 -7 -96 -16 -4
-7 -13 -9 -20 -5 -7 4 -93 8 -192 9 -162 1 -181 3 -193 19 -8 11 -11 26 -8 35
5 14 3 13 -9 -1 -13 -17 -15 -17 -27 -3 -23 28 -41 19 -41 -19z m215 -85 c3
-5 -1 -10 -10 -10 -9 0 -13 5 -10 10 3 6 8 10 10 10 2 0 7 -4 10 -10z m159 4
c9 -3 16 -15 16 -25 0 -22 -4 -23 -32 -8 -19 10 -20 9 -16 -30 2 -25 0 -40 -7
-38 -5 2 -9 13 -7 23 2 16 1 16 -7 4 -12 -17 -16 -14 -25 22 -5 21 -2 30 13
37 10 6 21 7 25 4 3 -3 6 -1 6 5 0 13 10 15 34 6z m200 -19 c-4 -8 -10 -15
-15 -15 -5 0 -9 7 -9 15 0 8 7 15 15 15 9 0 12 -6 9 -15z m186 11 c0 -2 -7 -6
-15 -10 -8 -3 -15 -1 -15 4 0 6 7 10 15 10 8 0 15 -2 15 -4z m-90 -62 c0 -8
-9 -14 -20 -14 -21 0 -24 8 -14 34 5 13 9 14 20 5 8 -6 14 -18 14 -25z m55
-24 c0 -8 -10 -16 -22 -18 -22 -3 -32 16 -16 32 12 11 38 2 38 -14z m-261 -9
c7 -10 -17 -21 -42 -21 -15 1 -14 3 2 15 23 17 33 19 40 6z m176 -11 c-6 -11
-20 -20 -30 -20 -11 0 -20 -7 -20 -15 0 -17 -16 -20 -25 -5 -9 15 -48 12 -73
-6 -20 -13 -22 -14 -22 0 0 33 50 52 168 65 10 1 10 -4 2 -19z m-250 -5 c-7
-9 -15 -13 -19 -10 -3 3 1 10 9 15 21 14 24 12 10 -5z"/>
<path d="M1024 3465 c-12 -8 -45 -16 -74 -19 -58 -5 -69 -11 -52 -28 8 -8 36
-9 99 -2 86 9 88 10 91 37 3 23 0 27 -20 27 -13 0 -33 -7 -44 -15z"/>
<path d="M2295 3421 c-22 -4 -49 -13 -60 -20 -19 -12 -19 -12 5 -7 14 2 36 8
49 12 17 5 22 4 17 -4 -10 -16 17 -15 32 0 13 13 16 29 5 27 -5 -1 -26 -5 -48
-8z"/>
<path d="M1031 3254 c-18 -8 -51 -14 -72 -14 -21 0 -41 -5 -44 -11 -12 -18 0
-20 48 -9 25 5 53 7 61 4 19 -7 21 -40 4 -47 -10 -4 -10 -6 -1 -6 10 -1 26 15
29 29 0 3 4 13 8 22 4 9 6 24 4 32 -3 13 -7 13 -37 0z"/>
<path d="M1310 3210 c-19 -5 -38 -7 -41 -4 -4 2 -31 -7 -60 -20 -30 -12 -65
-26 -79 -30 -32 -8 -76 -47 -85 -75 -6 -21 -6 -21 17 2 13 13 59 36 103 52 44
16 92 38 107 48 18 14 34 18 53 13 20 -5 25 -4 19 5 -5 9 -2 10 9 6 10 -3 17
-2 17 3 0 11 -11 11 -60 0z"/>
<path d="M1578 3158 c9 -9 15 -9 24 0 9 9 7 12 -12 12 -19 0 -21 -3 -12 -12z"/>
<path d="M1515 3150 c3 -5 10 -10 16 -10 5 0 9 5 9 10 0 6 -7 10 -16 10 -8 0
-12 -4 -9 -10z"/>
<path d="M1585 3130 c-47 -12 -60 -18 -40 -19 32 0 143 24 153 33 10 11 -42 4
-113 -14z"/>
<path d="M95 2900 c-9 -28 20 -77 49 -82 18 -4 27 1 35 19 19 41 14 56 -14 49
-17 -4 -31 0 -44 13 -20 20 -20 20 -26 1z"/>
<path d="M135 2752 c4 -20 11 -40 17 -43 5 -4 -2 -18 -16 -34 -14 -15 -26 -32
-26 -36 0 -4 -17 -11 -37 -14 -70 -12 -73 -14 -73 -50 0 -20 6 -35 15 -39 15
-5 45 18 45 35 0 5 9 9 21 9 18 0 20 -4 15 -25 -5 -21 -3 -25 14 -25 17 0 20
4 15 21 -6 19 -4 20 23 14 26 -5 33 -2 47 19 13 20 14 29 5 46 -10 18 -8 26
12 48 12 15 27 30 32 33 16 12 -5 29 -35 29 -16 0 -29 5 -29 13 0 6 -12 17
-26 24 -26 12 -26 12 -19 -25z m41 -149 c-11 -11 -19 6 -11 24 8 17 8 17 12 0
3 -10 2 -21 -1 -24z"/>
<path d="M248 2686 c-24 -18 -23 -25 2 -19 11 3 20 0 20 -6 0 -6 4 -11 9 -11
4 0 6 11 3 25 -5 28 -10 30 -34 11z"/>
<path d="M995 2344 c-44 -7 -99 -13 -122 -13 -26 -1 -48 -8 -59 -18 -17 -17
-17 -18 0 -21 16 -3 19 -24 3 -23 -3 0 -20 -4 -37 -9 -28 -8 -31 -6 -45 26
-14 33 -45 47 -45 20 0 -18 -31 -26 -102 -26 -80 0 -158 -18 -158 -37 0 -12
14 -13 92 -8 51 4 135 7 186 7 55 0 92 4 92 10 0 7 5 7 13 0 15 -12 87 4 87
20 0 4 13 8 29 8 17 0 33 5 36 10 3 6 17 10 30 10 13 0 27 5 30 10 3 6 15 10
25 10 24 0 70 21 70 32 0 10 -24 9 -125 -8z"/>
<path d="M966 2263 c-11 -11 -6 -23 9 -23 8 0 15 4 15 9 0 13 -16 22 -24 14z"/>
<path d="M127 2224 c3 -7 9 -14 14 -14 14 0 10 17 -5 23 -10 4 -13 1 -9 -9z"/>
<path d="M320 2231 c-22 -6 -23 -8 -7 -14 10 -4 38 -7 63 -7 34 0 42 3 38 15
-6 16 -49 19 -94 6z"/>
<path d="M3073 2210 c-2 -22 1 -28 12 -23 8 3 18 -2 21 -11 5 -12 10 -13 25
-5 23 12 26 44 4 35 -8 -3 -15 -1 -15 4 0 5 -7 7 -15 4 -9 -4 -15 0 -15 10 0
29 -15 17 -17 -14z"/>
<path d="M995 2100 c3 -5 8 -10 11 -10 2 0 4 5 4 10 0 6 -5 10 -11 10 -5 0 -7
-4 -4 -10z"/>
<path d="M887 2064 c-4 -4 -7 -15 -7 -25 0 -15 4 -17 23 -10 12 5 22 14 22 22
0 15 -27 24 -38 13z"/>
<path d="M1050 1991 c0 -6 5 -13 10 -16 6 -3 10 1 10 9 0 9 -4 16 -10 16 -5 0
-10 -4 -10 -9z"/>
<path d="M720 1940 c0 -5 7 -10 15 -10 8 0 15 5 15 10 0 6 -7 10 -15 10 -8 0
-15 -4 -15 -10z"/>
<path d="M1075 1910 c3 -5 8 -10 11 -10 2 0 4 5 4 10 0 6 -5 10 -11 10 -5 0
-7 -4 -4 -10z"/>
<path d="M1042 1859 c-30 -11 -24 -31 11 -36 21 -3 27 0 27 16 0 26 -10 31
-38 20z"/>
<path d="M1100 1850 c0 -25 19 -34 50 -22 23 9 23 9 -10 25 -41 21 -40 21 -40
-3z"/>
<path d="M1275 1859 c-10 -15 1 -23 20 -15 9 3 13 10 10 16 -8 13 -22 13 -30
-1z"/>
<path d="M1200 1850 c0 -5 5 -10 10 -10 6 0 10 5 10 10 0 6 -4 10 -10 10 -5 0
-10 -4 -10 -10z"/>
<path d="M3910 1816 c25 -25 35 -43 37 -71 1 -21 7 -43 13 -49 5 -5 10 -19 10
-31 0 -12 7 -30 15 -41 13 -17 14 -12 15 59 0 90 -20 128 -79 153 -48 20 -49
18 -11 -20z"/>
<path d="M888 1833 c-21 -2 -38 -9 -38 -15 0 -13 68 -4 84 12 5 5 6 9 1 8 -6
-1 -27 -3 -47 -5z"/>
<path d="M50 1810 c0 -5 5 -10 10 -10 6 0 10 5 10 10 0 6 -4 10 -10 10 -5 0
-10 -4 -10 -10z"/>
<path d="M597 1790 c-11 -18 -14 -30 -7 -30 6 0 20 -9 32 -20 23 -21 48 -27
48 -10 0 6 -6 10 -14 10 -16 0 -38 24 -30 33 3 3 17 1 31 -6 19 -9 26 -8 34 4
13 21 11 39 -5 33 -8 -3 -17 -1 -21 5 -13 22 -50 11 -68 -19z"/>
<path d="M367 1784 c-4 -4 -7 -11 -7 -16 0 -12 50 -4 53 8 2 11 -36 18 -46 8z"/>
<path d="M90 1737 c0 -17 20 -37 37 -37 7 0 13 10 12 23 0 12 -3 16 -6 10 -2
-7 -12 -13 -20 -13 -9 0 -13 6 -9 15 3 8 1 15 -4 15 -6 0 -10 -6 -10 -13z"/>
<path d="M640 1670 c0 -5 5 -10 10 -10 6 0 10 5 10 10 0 6 -4 10 -10 10 -5 0
-10 -4 -10 -10z"/>
<path d="M12 1608 c-13 -13 -17 -68 -4 -68 12 0 44 59 37 70 -8 13 -18 13 -33
-2z"/>
<path d="M670 1610 c0 -5 5 -10 11 -10 5 0 7 5 4 10 -3 6 -8 10 -11 10 -2 0
-4 -4 -4 -10z"/>
<path d="M430 1590 c0 -13 -7 -20 -20 -20 -18 0 -19 -2 -8 -20 13 -21 52 -27
63 -10 4 6 4 24 0 40 -7 33 -35 41 -35 10z"/>
<path d="M657 1583 c-12 -11 -8 -23 8 -23 8 0 15 7 15 15 0 16 -12 20 -23 8z"/>
<path d="M3200 1575 c0 -8 5 -15 10 -15 6 0 10 7 10 15 0 8 -4 15 -10 15 -5 0
-10 -7 -10 -15z"/>
<path d="M140 1470 c0 -5 12 -10 28 -9 24 0 25 1 7 9 -27 12 -35 12 -35 0z"/>
<path d="M321 1441 c-10 -6 -10 -10 -1 -16 13 -8 24 -1 19 14 -3 6 -10 7 -18
2z"/>
<path d="M0 1330 c0 -5 4 -10 9 -10 6 0 13 5 16 10 3 6 -1 10 -9 10 -9 0 -16
-4 -16 -10z"/>
<path d="M60 1330 c-13 -8 -12 -10 3 -10 9 0 17 5 17 10 0 12 -1 12 -20 0z"/>
<path d="M200 1320 c0 -5 7 -10 15 -10 8 0 15 5 15 10 0 6 -7 10 -15 10 -8 0
-15 -4 -15 -10z"/>
<path d="M315 1320 c3 -5 8 -10 11 -10 2 0 4 5 4 10 0 6 -5 10 -11 10 -5 0 -7
-4 -4 -10z"/>
<path d="M82 1283 c-15 -6 -6 -23 14 -23 8 0 14 7 14 15 0 15 -6 17 -28 8z"/>
<path d="M165 1282 c-3 -3 -5 -11 -5 -17 0 -9 8 -9 34 -1 19 6 33 13 30 17 -4
8 -51 9 -59 1z"/>
<path d="M2 739 c2 -7 10 -15 17 -17 8 -3 12 1 9 9 -2 7 -10 15 -17 17 -8 3
-12 -1 -9 -9z"/>
<path d="M0 673 c0 -43 5 -41 13 5 4 18 2 32 -3 32 -6 0 -10 -16 -10 -37z"/>
<path d="M0 585 c0 -29 4 -35 22 -35 21 0 21 0 2 16 -18 15 -18 15 3 9 13 -4
23 -2 23 4 0 23 -14 41 -31 41 -15 0 -19 -7 -19 -35z"/>
</g>
</svg>
