<?xml version="1.0" encoding="UTF-8" standalone="no"?>
<!DOCTYPE svg PUBLIC "-//W3C//DTD SVG 1.1//EN" "http://www.w3.org/Graphics/SVG/1.1/DTD/svg11.dtd">
<svg version="1.1" xmlns="http://www.w3.org/2000/svg" xmlns:xlink="http://www.w3.org/1999/xlink" preserveAspectRatio="xMidYMid meet" viewBox="0 0 640 640" width="640" height="640"><defs><path d="M630.64 318.81C630.64 490.23 491.18 629.41 319.41 629.41C147.65 629.41 8.19 490.23 8.19 318.81C8.19 147.38 147.65 8.2 319.41 8.2C491.18 8.2 630.64 147.38 630.64 318.81Z" id="aWw2uxiWe"></path><path d="M231.64 510.6C210.99 503.08 200.68 479.94 208.9 459.55C210.54 455.49 214.63 445.35 221.18 429.12C214.5 434.28 210.32 437.5 208.65 438.79C193.18 450.74 184.85 469.73 186.52 489.2C186.75 491.86 187.32 498.5 188.24 509.12C181.66 501.27 177.56 496.36 175.91 494.4C156.11 470.75 143.88 441.69 140.81 411C134.86 351.48 139.85 302.92 155.79 265.31C172.52 225.83 192.44 177.88 215.55 121.44C224.21 100.3 214.72 76.1 194.01 66.47C193.08 66.04 190.77 64.96 187.06 63.24C187.06 63.24 187.06 63.24 187.06 63.24C204.96 77.41 210.22 102.33 199.57 122.53C195.71 129.84 199.11 123.4 194.4 132.33C185.04 150.09 173.4 166.56 159.79 181.31C158.25 182.98 154.4 187.15 148.24 193.82C148.24 193.82 148.24 193.82 148.24 193.82C136.51 177.18 129.46 157.7 127.82 137.41C127.72 136.15 127.47 132.99 127.06 127.94C125.34 134.56 124.27 138.69 123.84 140.35C115.75 171.55 116.87 204.42 127.06 235C127.06 235 127.06 235 127.06 235C126.81 235.76 126.66 236.23 126.6 236.42C116.27 268.55 115.24 302.93 123.6 335.62C124.06 337.42 125.22 341.92 127.06 349.12C117.03 334.97 110.75 326.13 108.25 322.59C87.93 293.94 75.36 260.53 71.76 225.59C71.76 225.59 71.76 225.59 71.76 225.59C71.76 225.59 71.76 225.59 71.76 225.59C62.38 263.02 66.79 302.59 84.18 337.04C91.93 352.39 89.43 347.43 97.48 363.38C112.2 392.52 103.8 428.02 77.59 447.48C76.03 448.64 72.13 451.54 65.88 456.18C65.88 456.18 65.88 456.18 65.88 456.18C79.06 464.23 95.45 464.92 109.26 458.02C109.75 457.77 110.98 457.16 112.94 456.18C125.86 470.95 133.93 480.18 137.16 483.87C163.32 513.79 200.34 532.03 240 534.55C251.19 535.26 255.8 535.55 275.24 536.79C287.96 537.59 299.14 545.49 304.16 557.21C306.11 561.78 311 573.2 318.82 591.47C328.12 572.08 333.94 559.97 336.26 555.12C341.76 543.66 353.24 536.27 365.95 536.01C383.17 535.67 382.08 535.69 391.29 535.5C430.18 534.72 467.17 518.53 494.12 490.49C498.67 485.76 510.04 473.93 528.24 455C529.13 455.5 529.7 455.81 529.92 455.94C542.8 463.12 558.45 463.29 571.48 456.39C571.83 456.21 572.71 455.74 574.12 455C566.83 449.85 562.28 446.63 560.45 445.34C538.3 429.68 529.96 400.76 540.37 375.71C548.16 356.96 550.53 351.24 557.52 334.41C571.72 300.24 575.11 262.54 567.23 226.38C567.21 226.28 567.15 226.01 567.06 225.59C567.06 225.59 567.06 225.59 567.06 225.59C560.74 265.58 545.19 303.54 521.65 336.47C520.33 338.32 517.03 342.92 511.76 350.29C513.01 344.85 513.78 341.44 514.09 340.08C521.92 305.77 521.99 270.15 514.3 235.81C514.27 235.7 514.21 235.43 514.12 235C514.28 234.43 514.38 234.07 514.42 233.92C523.21 202.43 523.08 169.12 514.06 137.7C513.6 136.08 512.44 132.05 510.59 125.59C510.29 129.19 510.1 131.43 510.02 132.33C508.83 146.58 505.94 160.64 501.43 174.21C500.45 177.13 498.02 184.46 494.12 196.18C486.04 186.39 480.99 180.28 478.97 177.83C465.86 161.96 453.81 145.24 442.91 127.78C439.62 122.51 446.18 133.02 442.91 127.78C432.89 111.74 433.16 91.33 443.6 75.56C444.69 73.92 447.41 69.81 451.76 63.24C451.76 63.24 451.76 63.24 451.76 63.24C426.79 70.59 413.87 98.13 424.18 122.04C436.58 150.8 453.04 188.96 465.1 216.93C479.12 249.42 489.07 283.51 494.75 318.44C498.11 339.11 497.06 332.63 499.77 349.32C507.33 395.83 496.7 443.47 470.08 482.35C467.64 485.92 461.53 494.84 451.76 509.12C452.76 499.71 453.38 493.83 453.63 491.47C456.1 468.18 445.56 445.41 426.2 432.22C424.91 431.34 421.66 429.13 416.47 425.59C423.33 444.41 427.62 456.17 429.33 460.87C441.05 493.01 410.89 524.67 378.22 514.52C371.74 512.51 389.27 517.95 372.11 512.62C354.9 507.28 339.46 497.37 327.43 483.94C326.36 482.75 323.69 479.77 319.41 475C312.16 483.53 307.63 488.86 305.82 490.99C287.63 512.39 258.04 520.22 231.64 510.6C224.09 507.85 240.42 513.8 231.64 510.6Z" id="b1zDMl5pLq"></path><path d="M198.14 292.38C193.85 299.15 193.27 307.63 196.57 314.94C197.97 318.01 198.88 320.03 200.78 324.23C202.56 328.15 202.88 332.56 201.7 336.69C200.42 341.16 198.16 349.03 196.81 353.72C195.84 357.13 196.16 360.78 197.73 363.97C199.58 367.72 201.63 371.87 203.21 375.09C205.72 380.17 208.93 384.87 212.75 389.05C214.94 391.45 217.34 394.08 219.93 396.91C222.28 399.48 225.78 400.68 229.22 400.1C232.39 399.55 229.16 400.11 230.52 399.87C240.21 398.22 249.79 395.96 259.2 393.13C259.94 392.91 261.77 392.35 264.71 391.47C264.31 396.09 264.07 398.97 263.97 400.13C262.84 413.44 262.35 426.8 262.5 440.17C262.52 441.37 262.46 436.16 262.5 440.17C262.54 443.72 264.98 446.81 268.43 447.68C268.46 447.68 268.55 447.71 268.69 447.74C268.94 450.08 269.1 451.54 269.16 452.12C269.98 459.68 273.28 466.74 278.56 472.21C279.22 472.89 280.88 474.61 283.53 477.35C284.08 473.39 284.43 470.91 284.57 469.92C285.24 465.09 285.66 460.22 285.83 455.35C285.84 455.14 285.85 454.64 285.88 453.82C286.98 455.33 287.67 456.27 287.94 456.65C289.01 458.1 290.69 458.97 292.5 458.99C292.76 458.99 293.43 458.99 294.49 459C295 459.48 295.33 459.78 295.45 459.89C296.73 461.08 298.36 461.82 300.09 462.02C300.39 462.05 300.51 462.07 301.28 462.15C301.46 462.17 301.62 462.04 301.62 461.86C301.64 461.28 301.7 459.83 301.79 457.51L305 457.9C305.5 458.68 305.8 459.17 305.93 459.37C307.54 461.93 310.25 463.6 313.27 463.87C313.94 463.93 315.6 464.08 318.26 464.33L318.7 458.85L320.71 459.19L320.86 464.27C324.23 464.21 326.33 464.17 327.17 464.16C330.71 464.09 333.8 461.75 334.82 458.37C334.86 458.22 334.97 457.85 335.15 457.25L337.72 457.51L338.22 461.9C339 461.88 339.48 461.86 339.68 461.85C341.41 461.8 343.1 461.3 344.58 460.4C344.68 460.34 343.19 461.24 343.41 461.11C344.5 460.45 345.74 460.07 347.01 459.99C347.81 459.95 346.74 460.01 347.16 459.98C349.42 459.85 351.31 458.23 351.8 456.02C351.86 455.73 352.02 455 352.28 453.82L354.71 453.82C354.59 455.05 354.52 455.81 354.5 456.12C354.02 461.4 354.26 466.72 355.24 471.93C355.4 472.81 355.81 475.01 356.47 478.53C359.75 474.71 361.79 472.31 362.61 471.36C367.15 466.06 370.03 459.55 370.9 452.62C370.97 452.06 371.15 450.64 371.43 448.36C371.43 448.36 371.43 448.36 371.43 448.36C375.2 447.21 377.75 443.69 377.68 439.75C377.6 435.56 377.67 438.97 377.63 437.11C377.4 424.91 376.59 412.73 375.19 400.62C375.05 399.37 374.69 396.26 374.12 391.27C391.53 395.53 402.41 398.18 406.76 399.24C413.4 400.87 420.38 398.5 424.67 393.17C426.44 390.97 424.24 393.7 425.89 391.65C430.96 385.35 435.29 378.5 438.81 371.23C439.99 368.79 440.3 368.15 442 364.65C443.74 361.05 444.1 356.93 443 353.09C441.69 348.53 439.08 339.42 437.68 334.51C436.9 331.79 437.14 328.89 438.36 326.34C440.33 322.19 442.65 317.31 444.2 314.07C446.74 308.72 446.67 302.49 443.99 297.21C442.5 294.26 444.84 298.89 443.99 297.21C439 287.37 433.56 277.76 427.69 268.41C424.66 263.59 423.68 262.03 420.47 256.93C415.53 249.07 414.93 239.23 418.88 230.83C418.93 230.73 419.05 230.47 419.24 230.07C419.24 230.07 419.24 230.07 419.24 230.07C421.23 248.61 429.91 265.79 443.64 278.41C443.8 278.56 444.21 278.93 444.86 279.53C444.76 272.21 444.7 267.64 444.68 265.81C444.47 250.36 441.17 235.11 434.97 220.95C430.33 210.34 420.79 188.57 414.9 175.12C412.85 170.44 409.36 166.54 404.94 163.99C387.48 153.94 402.12 162.37 399.71 160.98C349.19 131.88 286.75 132.95 237.25 163.77C235.55 164.83 250.9 155.27 234.22 165.66C230.64 167.89 227.8 171.13 226.07 174.97C220.14 188.07 208.9 212.92 203.94 223.88C198.98 234.85 196.31 246.71 196.09 258.74C196.03 261.6 195.9 268.74 195.69 280.17C195.69 280.17 195.69 280.17 195.69 280.17C208.73 268.7 217.13 252.88 219.32 235.66C219.41 234.94 219.64 233.16 220 230.29C220.49 231.2 220.79 231.76 220.91 231.99C225.3 240.1 224.96 249.94 220.04 257.74C214.28 266.84 204.11 282.92 198.14 292.38Z" id="biHHYbcuH"></path><path d="M214.33 312.52C216.06 319.61 217.13 324.04 217.56 325.81C221.96 343.89 237.09 357.37 255.56 359.64C258.13 359.96 264.56 360.75 274.83 362.02C279.25 359.28 282.01 357.56 283.12 356.88C290.63 352.22 296.79 345.67 300.98 337.88C301.29 337.3 302.08 335.85 303.33 333.52C292.12 327.97 285.12 324.51 282.32 323.12C267.65 315.87 253.61 307.43 240.33 297.89C239.79 297.5 238.46 296.55 236.33 295.02C233.72 296.08 232.08 296.75 231.43 297.01C225.58 299.4 220.55 303.45 216.98 308.66C216.62 309.18 215.74 310.46 214.33 312.52Z" id="b1rMZZWSnH"></path><path d="M425.33 312.52C423.61 319.61 422.53 324.04 422.1 325.81C417.71 343.89 402.57 357.37 384.1 359.64C381.53 359.96 375.11 360.75 364.83 362.02C360.42 359.28 357.65 357.56 356.55 356.88C349.04 352.22 342.88 345.67 338.69 337.88C338.37 337.3 337.59 335.85 336.33 333.52C347.54 327.97 354.55 324.51 357.35 323.12C372.01 315.87 386.06 307.43 399.34 297.89C399.87 297.5 401.2 296.55 403.33 295.02C405.95 296.08 407.58 296.75 408.24 297.01C414.09 299.4 419.12 303.45 422.69 308.66C423.04 309.18 423.92 310.46 425.33 312.52Z" id="aaQ9MrtFsU"></path><path d="M262.41 321.8L276.2 335.59L262.76 349.02L248.97 335.23L262.41 321.8Z" id="a7f0MWgvUm"></path><radialGradient id="gradientfUY6fJJbU" gradientUnits="userSpaceOnUse" cx="262.58" cy="335.41" r="9.5"><stop style="stop-color: #7030a0;stop-opacity: 1" offset="0%"></stop><stop style="stop-color: #000000;stop-opacity: 1" offset="100%"></stop></radialGradient><path d="M377.91 321.62L391.7 335.41L378.26 348.84L364.47 335.06L377.91 321.62Z" id="aq0ujPzWA"></path><radialGradient id="gradientfgTZ4LZbn" gradientUnits="userSpaceOnUse" cx="378.08" cy="335.23" r="9.5"><stop style="stop-color: #7030a0;stop-opacity: 1" offset="0%"></stop><stop style="stop-color: #000000;stop-opacity: 1" offset="100%"></stop></radialGradient><path d="M300.33 400.77L309.33 407.27L319.33 390.77L330.83 406.77L339.33 400.77C339.33 400.77 339.33 400.77 339.33 400.77C336.71 383.02 330.61 365.97 321.39 350.58C321.2 350.27 320.74 349.5 320 348.27C319.55 349.07 319.27 349.57 319.15 349.77C310.24 365.68 303.89 382.88 300.33 400.77C300.33 400.77 300.33 400.77 300.33 400.77Z" id="c3AhutGYEK"></path></defs><g visibility="inherit"><g visibility="inherit"><g visibility="inherit"><g><use xlink:href="#aWw2uxiWe" opacity="1" fill-opacity="1" stroke="#ffffff" stroke-width="9" stroke-opacity="1"></use></g></g><g visibility="inherit"><use xlink:href="#b1zDMl5pLq" opacity="1" fill="#7030a0" fill-opacity="1"></use></g><g visibility="inherit"><use xlink:href="#biHHYbcuH" opacity="1" fill="#ffffff" fill-opacity="1"></use></g><g visibility="inherit"><use xlink:href="#b1rMZZWSnH" opacity="1" fill="#000000" fill-opacity="1"></use></g><g visibility="inherit"><use xlink:href="#aaQ9MrtFsU" opacity="1" fill="#000000" fill-opacity="1"></use></g><g visibility="inherit"><use xlink:href="#a7f0MWgvUm" opacity="1" fill="url(#gradientfUY6fJJbU)"></use></g><g visibility="inherit"><use xlink:href="#aq0ujPzWA" opacity="1" fill="url(#gradientfgTZ4LZbn)"></use></g><g visibility="inherit"><use xlink:href="#c3AhutGYEK" opacity="1" fill="#000000" fill-opacity="1"></use></g></g></g></svg>